<?xml version="1.0" encoding="UTF-8"?>
<svg id="_레이어_2" data-name="레이어 2" xmlns="http://www.w3.org/2000/svg" viewBox="0 0 653.56 202.9">
  <defs>
    <style>
      .cls-1 {
        stroke: #fff;
        stroke-miterlimit: 10;
        stroke-width: 11px;
      }

      .cls-1, .cls-2 {
        fill: #103f5d;
      }

      .cls-3 {
        fill: #fff;
      }

      .cls-3, .cls-4, .cls-5, .cls-2 {
        stroke-width: 0px;
      }

      .cls-4 {
        fill: #fffcc3;
      }

      .cls-5 {
        fill: #85f4e8;
      }
    </style>
  </defs>
  <g id="_레이어_1-2" data-name="레이어 1">
    <g>
      <path class="cls-1" d="m23.26,43.5c1.36,0,2.49,4.06,2.76,9.47,5.41.27,9.47,1.4,9.47,2.76s-4.07,2.49-9.5,2.76c-.31,5.18-1.42,9-2.73,9s-2.42-3.84-2.74-9.03c-5.19-.31-9.03-1.42-9.03-2.74s3.83-2.42,9-2.73c.27-5.43,1.4-9.5,2.76-9.5m0-6c-2.07,0-5.79.92-7.56,7.06-.26.91-.49,1.94-.67,3.05-.98.18-1.89.39-2.7.64-5.95,1.78-6.84,5.46-6.84,7.49s.89,5.71,6.85,7.49c.83.25,1.76.47,2.77.65.18,1.01.4,1.94.65,2.77,1.78,5.96,5.46,6.85,7.49,6.85s5.71-.89,7.49-6.84c.24-.81.46-1.72.64-2.7,1.11-.18,2.13-.41,3.05-.67,6.14-1.76,7.06-5.49,7.06-7.56s-.92-5.79-7.05-7.55c-.89-.26-1.89-.48-2.97-.66-.18-1.08-.4-2.08-.66-2.97-1.76-6.13-5.49-7.05-7.55-7.05h0Z"/>
      <path class="cls-1" d="m47.7,11.5c1.75,0,3.21,5.24,3.57,12.24,6.99.35,12.24,1.81,12.24,3.57s-5.26,3.22-12.27,3.57c-.4,6.69-1.83,11.63-3.53,11.63s-3.13-4.96-3.53-11.66c-6.7-.4-11.66-1.83-11.66-3.53s4.94-3.13,11.63-3.53c.35-7.01,1.81-12.27,3.57-12.27m0-6c-2.66,0-6.22,1.36-8.08,7.85-.41,1.43-.75,3.1-1,4.93-5.37.8-12.11,2.92-12.11,9.02s6.78,8.23,12.16,9.03c.8,5.38,2.91,12.16,9.03,12.16s8.22-6.75,9.02-12.11c1.83-.26,3.49-.59,4.93-1,6.49-1.86,7.85-5.42,7.85-8.08,0-6.27-7.1-8.36-12.69-9.11-.76-5.59-2.84-12.69-9.11-12.69h0Z"/>
      <path class="cls-2" d="m23.26,43.5c1.36,0,2.49,4.06,2.76,9.47,5.41.27,9.47,1.4,9.47,2.76s-4.07,2.49-9.5,2.76c-.31,5.18-1.42,9-2.73,9s-2.42-3.84-2.74-9.03c-5.19-.31-9.03-1.42-9.03-2.74s3.83-2.42,9-2.73c.27-5.43,1.4-9.5,2.76-9.5m0-6c-2.07,0-5.79.92-7.56,7.06-.26.91-.49,1.94-.67,3.05-.98.18-1.89.39-2.7.64-5.95,1.78-6.84,5.46-6.84,7.49s.89,5.71,6.85,7.49c.83.25,1.76.47,2.77.65.18,1.01.4,1.94.65,2.77,1.78,5.96,5.46,6.85,7.49,6.85s5.71-.89,7.49-6.84c.24-.81.46-1.72.64-2.7,1.11-.18,2.13-.41,3.05-.67,6.14-1.76,7.06-5.49,7.06-7.56s-.92-5.79-7.05-7.55c-.89-.26-1.89-.48-2.97-.66-.18-1.08-.4-2.08-.66-2.97-1.76-6.13-5.49-7.05-7.55-7.05h0Z"/>
      <path class="cls-2" d="m47.7,11.5c1.75,0,3.21,5.24,3.57,12.24,6.99.35,12.24,1.81,12.24,3.57s-5.26,3.22-12.27,3.57c-.4,6.69-1.83,11.63-3.53,11.63s-3.13-4.96-3.53-11.66c-6.7-.4-11.66-1.83-11.66-3.53s4.94-3.13,11.63-3.53c.35-7.01,1.81-12.27,3.57-12.27m0-6c-2.66,0-6.22,1.36-8.08,7.85-.41,1.43-.75,3.1-1,4.93-5.37.8-12.11,2.92-12.11,9.02s6.78,8.23,12.16,9.03c.8,5.38,2.91,12.16,9.03,12.16s8.22-6.75,9.02-12.11c1.83-.26,3.49-.59,4.93-1,6.49-1.86,7.85-5.42,7.85-8.08,0-6.27-7.1-8.36-12.69-9.11-.76-5.59-2.84-12.69-9.11-12.69h0Z"/>
      <path class="cls-4" d="m35.5,55.74c0-1.36-4.06-2.49-9.47-2.76-.27-5.41-1.4-9.47-2.76-9.47s-2.49,4.07-2.76,9.5c-5.18.31-9,1.42-9,2.73s3.84,2.42,9.03,2.74c.31,5.19,1.42,9.03,2.74,9.03s2.42-3.83,2.73-9c5.43-.27,9.5-1.4,9.5-2.76Z"/>
      <path class="cls-4" d="m63.5,27.3c0-1.75-5.24-3.21-12.24-3.57-.35-6.99-1.81-12.24-3.57-12.24s-3.22,5.26-3.57,12.27c-6.69.4-11.63,1.83-11.63,3.53s4.96,3.13,11.66,3.53c.4,6.7,1.83,11.66,3.53,11.66s3.13-4.94,3.53-11.63c7.01-.35,12.27-1.81,12.27-3.57Z"/>
      <g>
        <path class="cls-5" d="m304.27,169.29c-2.28,0-4.47-.42-6.53-1.23-3.03-1.21-5.59-3.26-7.59-6.07-1.29-1.81-2.47-4.13-3.6-7.08-.43-1.16-.89-2.42-1.45-3.91-.56-1.5-1.15-3.04-1.76-4.64l-.42-1.11c-3.12.23-6.22.44-9.26.64h-.19c-3.31.17-6.66.32-10,.45-.04.12-.08.24-.13.35-.56,1.57-1.17,3.1-1.8,4.53-.54,1.23-.83,1.96-.98,2.36l-.05.14c-2.42,6.05-6.02,10.31-10.69,12.65-2.97,1.48-6.27,2.23-9.82,2.23-1.66,0-3.4-.17-5.16-.5l-.13-.03c-3.15-.65-5.68-1.68-7.71-2.9-3.46,2.35-7.75,3.58-12.58,3.58-.54,0-1.09-.01-1.65-.04-8.34-.48-13-4.18-15.45-7.23-3.05-3.72-4.68-8.59-4.85-14.49v-.32c0-4.96-.1-10.05-.28-15.13-.05-1.5-.1-3.01-.13-4.54-2.29.1-4.61.2-6.93.28-2.67.1-5.3.19-7.91.28-.02,1.73-.04,3.43-.05,5.09-.05,5.07-.12,9.87-.22,14.26-.17,5.96-1.8,10.87-4.84,14.62-2.45,3.02-7.19,6.71-15.89,7.17-.57.03-1.12.04-1.66.04-8.03,0-12.75-3.22-15.3-5.92-1.36-1.44-2.5-3.06-3.41-4.84-2.02,1.33-4.18,2.56-6.48,3.69-8.79,4.33-19.07,6.7-30.58,7.03-.96.04-1.98.05-2.98.05-8,0-15.53-1.18-22.38-3.52-8-2.73-15-6.93-20.8-12.5-5.85-5.61-10.4-12.69-13.51-21.04-2.99-8-4.5-17.23-4.5-27.41,0-8.54,1.28-16.67,3.82-24.16,2.64-7.81,6.73-14.79,12.16-20.75,5.43-5.96,12.26-10.8,20.29-14.39,7.82-3.49,16.93-5.59,27.07-6.25,1.9-.15,3.87-.22,5.87-.22,2.35,0,4.76.1,7.17.31,4.66.4,9.17,1.24,13.42,2.5,3.65,1.09,7.07,2.53,10.21,4.31.63-.75,1.33-1.44,2.09-2.08,2.12-1.79,4.66-3.11,7.76-4.06,2.7-.82,5.78-1.21,9.41-1.21s6.56.42,9.19,1.3c2.92.98,5.42,2.38,7.43,4.17,2.34,2.09,4.05,4.64,5.08,7.6.71,2.04,1.15,4.18,1.32,6.39l.03.44c.1,2.48.17,5.26.22,8.25l.14,9.21c.04,2.41.06,4.83.07,7.23,2.29-.1,4.6-.2,6.91-.29,2.62-.1,5.22-.19,7.78-.28.01-2.45.03-4.88.04-7.29.05-6.35.17-12.02.37-16.85.19-5.16,2.1-9.86,5.51-13.58,3.88-4.24,9.62-6.3,17.54-6.3,3.64,0,6.71.39,9.39,1.2,3.12.95,5.65,2.27,7.78,4.06,2.64,2.23,4.47,4.99,5.46,8.22.67,2.2,1,4.45,1,6.72,0,4.6-.03,9.58-.1,14.86.14-.45.28-.89.42-1.34,2.46-7.81,4.67-14.61,6.57-20.21l.16-.43c1.12-2.91,2.91-5.51,5.33-7.72,2.72-2.49,5.88-4.04,9.4-4.62,1.81-.35,3.87-.61,6.12-.78,2.07-.16,4.23-.26,6.43-.31.76-.02,1.5-.03,2.25-.03,1.53,0,3.04.04,4.51.11,2.26.11,4.29.28,6.02.51l.23.03c4.58.74,8.44,2.95,11.27,6.34,3-2.25,6.47-3.6,10.22-3.93h.18c12.15-.79,24.1-1.27,35.51-1.47,11.29-.19,22.66-.29,33.79-.29,1.19,0,2.38.11,3.54.34,9.93-.55,19.53-.9,28.54-1.05,11.29-.19,22.66-.29,33.79-.29,4.99,0,9.6,1.93,12.99,5.45,1,1.04,1.85,2.2,2.56,3.49,1.75-.99,3.55-1.9,5.41-2.73,7.61-3.41,16.15-5.42,25.4-5.98,1.46-.09,2.93-.13,4.37-.13,7.67,0,14.92,1.28,21.53,3.79,7.96,3.03,14.91,7.63,20.65,13.66.7.73,1.37,1.48,2.03,2.25.02-.69.07-2.25.07-2.25l.03-.42c.47-5.42,2.9-10.03,6.84-12.99,3.45-2.59,7.91-3.8,14.03-3.8,4.52,0,8.17.37,11.19,1.14,4.98,1.28,9.14,4.47,12.04,9.22,2.78,4.5,5.94,9.78,9.38,15.65l8.55,14.6c.01-2.61.03-5.13.05-7.55.05-5.26.17-9.74.37-13.3.19-4.78,1.77-9.19,4.55-12.77,3.66-4.71,9.48-7,17.78-7,3.67,0,6.75.4,9.42,1.24,3.24,1.02,5.84,2.47,7.94,4.45,2.5,2.37,4.2,5.37,4.93,8.71.42,1.93.62,3.88.62,5.81,0,6.79-.07,14.37-.22,22.53-.14,8.11-.36,16.4-.65,24.66-.28,8.11-.62,16.04-1.01,23.58-.38,7.43-.77,13.85-1.16,19.09l-.03.3c-.6,5.96-3.31,11.02-7.85,14.63-4.09,3.25-9.28,4.98-15.42,5.14-.32.01-.69.02-1.04.02-4.69,0-8.69-1.08-11.91-3.22-2.51-1.67-4.89-4-7.29-7.11l-.17-.23c-2.27-3.1-5.04-7.29-8.22-12.47-2.86-4.65-5.99-9.82-9.3-15.38-.12,2.32-.25,4.56-.38,6.7-.3,4.92-.66,9.04-1.07,12.25-.68,5.09-2.51,9.42-5.46,12.93-2.52,2.99-7.26,6.55-15.51,6.55-.52,0-1.05-.01-1.6-.04-8.57-.51-13.22-4.56-15.62-7.87-2.59-3.58-4.1-7.95-4.49-12.99-.91,1.01-1.85,1.99-2.83,2.94-5.76,5.58-12.55,9.97-20.2,13.04-7.52,3.02-15.57,4.66-23.94,4.89-.64.02-1.28.03-1.92.03-7.86,0-15.41-1.3-22.43-3.85-7.81-2.84-14.71-7.17-20.52-12.87-5.76-5.64-10.35-12.58-13.65-20.61-.62-1.52-1.19-3.08-1.69-4.68-.47,7.76-1.04,14.68-1.68,20.67l-.07.55c-.88,5.62-3.4,10.44-7.29,13.96-3.94,3.55-9.03,5.35-15.15,5.35-.53,0-1.08-.01-1.63-.04-8.66-.5-13.29-4.44-15.66-7.66-2.67-3.62-4.19-8.23-4.51-13.71v-.17c-.21-5.54-.33-11.56-.38-17.89-.05-6.04-.07-12.25-.07-18.99s.02-12.94.07-18.99c.01-1.98.04-3.95.07-5.88h-8.61c-2.65,0-5.13-.42-7.41-1.24-.28.02-1.55.12-1.91.15-.22,11.57-.55,22.42-.99,32.33-.58,13-1.36,24.18-2.34,33.24l-.07.55c-.88,5.62-3.4,10.44-7.29,13.96-3.94,3.55-9.04,5.35-15.15,5.35-.53,0-1.08-.01-1.63-.04-8.15-.47-12.73-3.99-15.22-7.08-2.18,2.7-5.61,5.29-10.97,6.76-2.26.62-4.23,1.04-6,1.25-.78.09-1.56.14-2.32.14ZM99.37,82.57c-2.95.06-5.62.61-7.9,1.63-2.13.96-3.94,2.3-5.38,3.98-1.6,1.87-2.87,4.15-3.77,6.78-.97,2.83-1.45,6.02-1.45,9.48,0,4.05.49,7.57,1.46,10.45.89,2.65,2.09,4.85,3.57,6.56,1.3,1.5,2.77,2.55,4.62,3.3,1.71.69,3.7,1.04,5.9,1.04.32,0,.64,0,.96-.02,1.87-.06,3.61-.34,5.23-.82,1.7-.5,3.29-1.18,4.74-2.01,1.39-.8,2.64-1.73,3.7-2.77.98-.95,1.78-1.97,2.39-3.03,1.94-3.39,4.57-5.9,7.8-7.45,2.57-1.22,5.29-1.84,8.1-1.84.24,0,.48,0,.73.01.34.01.68.04,1.02.07-.01-.38-.02-.77-.03-1.15-.12-4.25-.24-8.56-.33-12.92-1.4.32-2.83.49-4.24.49-3.53,0-8.78-1.04-13.76-6.02-1.79-1.79-3.87-3.35-6.19-4.62-.78-.43-2.67-1.15-6.62-1.15h-.55Zm391.39-.29c-2.58.13-4.93.68-7,1.64-1.95.91-3.63,2.19-5.02,3.81-1.54,1.81-2.81,4.09-3.76,6.79-.98,2.79-1.48,5.99-1.48,9.51,0,3.72.52,6.99,1.54,9.71,1.01,2.68,2.31,4.92,3.85,6.64,1.37,1.53,2.98,2.69,4.77,3.44,1.73.73,3.56,1.1,5.46,1.1.13,0,.26,0,.39,0,2.52-.06,4.84-.57,6.91-1.52l.11-.05c2.15-.96,4.02-2.3,5.56-3.98,1.58-1.72,2.86-3.91,3.81-6.51,1-2.75,1.51-6.01,1.51-9.68,0-3.92-.53-7.33-1.56-10.12-.97-2.6-2.24-4.75-3.77-6.37-1.45-1.53-3.01-2.58-4.91-3.31-1.9-.73-3.94-1.1-6.05-1.1-.12,0-.25,0-.37,0Zm-179.24,2.65c1.08,3.76,2.15,7.56,3.21,11.37,1.17,4.2,2.32,8.38,3.44,12.54,0-6.37.03-12.28.07-18.03.02-1.99.04-3.96.07-5.88h-6.79Z"/>
        <path class="cls-3" d="m275.73,45.44c1.39,0,2.77.03,4.14.1,2.06.1,3.87.25,5.4.46l.11.02c3.14.51,7.28,2.42,9.18,8.62.78,2.42,1.59,5.01,2.44,7.73.02-4.02,1.13-7.29,3.33-9.69,2.3-2.51,5.1-3.92,8.3-4.2,12.07-.77,23.87-1.25,35.16-1.44,11.28-.19,22.6-.29,33.66-.29,1.02,0,1.99.14,2.91.39,10.02-.56,19.84-.94,29.29-1.1,11.28-.19,22.6-.29,33.66-.29,2.98,0,5.6,1.09,7.59,3.15,2,2.08,2.97,5.16,2.97,9.41,0,.52-.02,1.02-.04,1.51,3.96-3.41,8.48-6.27,13.5-8.52,6.78-3.04,14.45-4.83,22.79-5.33,1.32-.08,2.63-.12,3.92-.12,6.76,0,13.09,1.1,18.86,3.3,6.9,2.63,12.92,6.61,17.88,11.82,4.93,5.19,8.77,11.56,11.42,18.95,1.18,3.3,2.09,6.8,2.74,10.45.08-4.74.18-9.4.29-13.91.19-7.62.38-14.42.57-20.21v-.22c.38-4.19,2.32-6.46,3.88-7.63,2.09-1.57,5.12-2.3,9.53-2.3,3.88,0,6.93.3,9.33.91,3.08.79,5.6,2.76,7.49,5.86,2.77,4.48,5.9,9.72,9.31,15.54,3.42,5.85,6.92,11.82,10.48,17.9,3.56,6.08,7.01,11.97,10.33,17.67.57.96,1.14,1.89,1.69,2.8v-18.73c0-5.83.02-11.31.07-16.3.05-5.19.17-9.57.36-13.02.12-3.25,1.13-6.13,2.98-8.51,2.15-2.77,6.03-4.11,11.86-4.11,2.9,0,5.25.29,7.18.89,2.13.67,3.78,1.57,5.04,2.76,1.41,1.33,2.33,2.96,2.74,4.84.3,1.39.45,2.8.45,4.21,0,6.74-.07,14.28-.21,22.4-.14,8.08-.36,16.33-.64,24.53-.28,8.08-.62,15.97-1,23.46-.38,7.4-.77,13.77-1.15,18.92v.1c-.4,3.95-2.1,7.15-5.06,9.51-2.78,2.21-6.46,3.39-10.95,3.51-.29,0-.57.01-.84.01-3.21,0-5.77-.64-7.75-1.97-1.81-1.21-3.61-2.99-5.51-5.45l-.06-.08c-2.15-2.93-4.8-6.95-7.88-11.97-2.98-4.83-6.25-10.25-9.73-16.1-3.44-5.78-6.89-11.74-10.25-17.7-.72-1.28-1.43-2.54-2.12-3.78,0,.22-.02.44-.02.67-.19,5.54-.41,11.07-.64,16.44-.24,5.46-.5,10.59-.79,15.26-.29,4.75-.63,8.7-1.02,11.75-.48,3.62-1.75,6.66-3.76,9.05-2.17,2.58-5.46,3.88-9.77,3.88-.39,0-.79-.01-1.2-.03-4.5-.27-7.84-1.88-9.95-4.78-1.83-2.52-2.87-5.72-3.11-9.52-.29-6.95-.44-14.52-.44-22.57,0-2.07.01-4.16.02-6.24-.73,3.3-1.72,6.46-2.99,9.45h0c-2.96,6.93-7.03,12.94-12.09,17.85-5.06,4.91-11.04,8.76-17.77,11.47-6.69,2.68-13.87,4.15-21.35,4.35-.57.02-1.15.02-1.72.02-6.98,0-13.66-1.14-19.87-3.4-6.79-2.47-12.79-6.23-17.84-11.17-5.03-4.92-9.05-11.01-11.96-18.1-2.9-7.06-4.36-15.23-4.36-24.27,0-8.06,1.31-15.61,3.9-22.45,1.13-2.99,2.49-5.83,4.05-8.52-3.28.35-6.69.67-10.11.94-2.5.2-5.13.38-7.85.53-.21,14.09-.57,27.21-1.09,39.03h0c-.57,12.83-1.34,23.86-2.3,32.77l-.03.19c-.62,3.96-2.27,7.17-4.91,9.55-2.51,2.27-5.92,3.41-10.12,3.41-.41,0-.83-.01-1.25-.03-4.58-.26-7.94-1.82-10-4.62-1.79-2.43-2.82-5.7-3.06-9.7-.2-5.5-.32-11.42-.36-17.68-.05-6.01-.07-12.2-.07-18.93s.02-12.92.07-18.93c.04-4.69.11-9.21.23-13.5-2.21.04-4.36.05-6.43.05h-9.84c-2.34,0-4.4-.46-6.19-1.37-.89.08-1.77.15-2.66.22-2.5.2-5.13.38-7.85.53-.21,14.09-.57,27.21-1.09,39.03h0c-.57,12.83-1.34,23.86-2.3,32.77l-.03.19c-.62,3.96-2.27,7.17-4.91,9.55-2.52,2.27-5.92,3.41-10.12,3.41-.41,0-.83-.01-1.25-.03-4.58-.26-7.94-1.82-10.01-4.62-1.79-2.43-2.82-5.7-3.06-9.7-.2-5.5-.32-11.42-.36-17.68-.05-6.01-.07-12.2-.07-18.93s.02-12.92.07-18.93c.04-4.69.11-9.21.23-13.5-2.21.04-4.36.05-6.43.05h-9.84c-3.78,0-6.86-1.2-9.15-3.57-.04-.04-.07-.08-.1-.12.11.37.22.74.33,1.12,2.24,7.6,4.5,15.49,6.72,23.46,2.25,8.08,4.43,16.14,6.5,23.94,2.15,8.13,3.97,15.14,5.57,21.44.97,3.76.87,7.17-.31,10.1-1.34,3.36-4.25,5.67-8.65,6.87-1.91.53-3.53.87-4.93,1.04-.48.06-.96.09-1.42.09-1.32,0-2.58-.23-3.75-.7-1.67-.67-3.11-1.83-4.27-3.46-.92-1.28-1.8-3.05-2.69-5.39-.4-1.09-.87-2.36-1.43-3.87-.57-1.51-1.16-3.08-1.77-4.69l-2.42-6.33c-4.98.38-9.93.74-14.76,1.05h-.06c-4.93.25-9.92.46-14.9.63-.15.42-.3.84-.47,1.26-.52,1.31-1,2.62-1.46,3.88-.51,1.42-1.05,2.77-1.6,4.04-.49,1.11-.87,2.02-1.13,2.72-1.73,4.33-4.1,7.24-7.09,8.73-1.92.96-4.08,1.44-6.46,1.44-1.2,0-2.46-.12-3.77-.37-4.5-.93-7.55-2.88-9.13-5.82-.1-.18-.17-.37-.26-.55-.67,1.25-1.51,2.38-2.52,3.38-2.4,2.33-5.72,3.52-9.89,3.52-.41,0-.82-.01-1.25-.03-4.5-.26-7.87-1.76-10.03-4.47-1.99-2.41-3.06-5.76-3.17-9.97v-.11c0-5.04-.1-10.22-.28-15.41-.14-3.92-.21-7.99-.19-12.16-4.78.27-9.69.5-14.64.68-5.13.19-10.15.36-15.04.52-.07,4.29-.12,8.39-.15,12.28-.05,5.04-.12,9.8-.21,14.17-.12,4.24-1.19,7.61-3.17,10.06-2.17,2.67-5.68,4.15-10.46,4.4-.43.02-.85.03-1.26.03-4.3,0-7.61-1.2-9.84-3.56-2.23-2.37-3.56-5.56-3.93-9.5-.12-1.26-.24-2.6-.36-4.03-3.6,4.25-8.41,7.87-14.37,10.81-7.81,3.85-17.05,5.96-27.47,6.26-.93.03-1.85.05-2.77.05-7.17,0-13.89-1.04-19.97-3.12-6.95-2.37-13.02-6.01-18.03-10.81-5.03-4.82-8.96-10.96-11.68-18.25-2.68-7.17-4.03-15.51-4.03-24.79,0-7.72,1.15-15.04,3.42-21.75,2.31-6.82,5.88-12.91,10.6-18.1,4.73-5.19,10.72-9.43,17.8-12.59,7.02-3.13,15.28-5.02,24.55-5.62,1.73-.14,3.51-.2,5.33-.2,2.13,0,4.32.09,6.53.28,4.15.36,8.16,1.1,11.93,2.22,3.88,1.16,7.44,2.78,10.6,4.83,1.88,1.22,3.52,2.61,4.93,4.16.08-1.2.29-2.39.64-3.54.56-1.83,1.6-3.41,3.1-4.67,1.33-1.12,3.01-1.98,5.12-2.62,1.97-.6,4.33-.89,7.23-.89,2.74,0,4.97.3,6.83.92,1.94.65,3.56,1.54,4.82,2.66,1.37,1.22,2.37,2.72,2.98,4.46.49,1.42.8,2.93.92,4.5v.15c.1,2.4.18,5.12.23,8.08l.14,9.21c.05,3.26.07,6.54.07,9.76v5.24c4.81-.27,9.73-.5,14.68-.68,5.11-.19,10.11-.36,14.98-.52,0-4.86.03-9.71.07-14.49.05-6.27.17-11.85.36-16.61.13-3.42,1.32-6.39,3.54-8.82,2.38-2.6,6.31-3.87,12.01-3.87,2.89,0,5.25.29,7.22.88,2.12.64,3.79,1.5,5.12,2.62,1.5,1.27,2.55,2.84,3.11,4.67.45,1.48.67,3,.67,4.52,0,6.84-.07,14.49-.21,22.75-.14,8.26-.36,16.59-.64,24.75-.28,8.1-.62,15.96-1,23.39-.06,1.17-.12,2.31-.18,3.43.83-3.03,1.71-6.22,2.65-9.56,2.26-8.07,4.64-16.41,7.07-24.78,2.43-8.38,4.88-16.52,7.3-24.2,2.43-7.73,4.63-14.48,6.52-20.05l.05-.15c.7-1.81,1.84-3.45,3.39-4.87,1.66-1.51,3.56-2.45,5.65-2.77,1.56-.31,3.37-.54,5.38-.69,1.93-.14,3.97-.24,6.05-.29.69-.02,1.38-.02,2.07-.02m213.39,86.98c.19,0,.39,0,.59,0,3.53-.08,6.84-.82,9.84-2.2l.04-.02c3.09-1.38,5.79-3.32,8.03-5.76,2.25-2.45,4.04-5.48,5.32-9.01,1.31-3.58,1.97-7.7,1.97-12.25,0-4.82-.68-9.1-2.03-12.73-1.33-3.56-3.13-6.56-5.36-8.91-2.22-2.34-4.73-4.02-7.66-5.15-2.77-1.06-5.71-1.6-8.74-1.6-.21,0-.42,0-.64,0-3.56.16-6.92.95-9.89,2.34-2.93,1.37-5.48,3.3-7.56,5.75-2.14,2.51-3.86,5.59-5.12,9.15-1.27,3.59-1.91,7.63-1.91,12.01,0,4.63.68,8.79,2.03,12.36,1.34,3.56,3.12,6.59,5.29,9.01,2.11,2.35,4.61,4.15,7.43,5.34,2.65,1.12,5.47,1.69,8.38,1.69m-392.71.88c.43,0,.86,0,1.3-.03,2.45-.08,4.8-.46,7.03-1.12,2.26-.67,4.39-1.58,6.35-2.7,1.93-1.11,3.68-2.42,5.2-3.89,1.48-1.44,2.72-3.02,3.67-4.68,1.17-2.04,2.69-3.53,4.53-4.41,1.55-.74,3.18-1.11,4.87-1.11.15,0,.29,0,.44,0,1.61.07,3.27.41,4.94,1.03,1.49.55,2.91,1.27,4.24,2.14-.16-3.89-.29-7.89-.41-11.96-.24-8.09-.43-16.46-.57-24.87,0-.05,0-.1,0-.15-2.6,2.49-5.54,4.16-8.74,4.96-.81.2-1.74.35-2.76.35-2.5,0-5.5-.87-8.46-3.82-2.29-2.29-4.94-4.27-7.88-5.89-2.52-1.38-5.96-2.08-10.24-2.08-.22,0-.44,0-.67,0-3.99.08-7.64.85-10.85,2.29-3.15,1.41-5.85,3.41-8.01,5.94-2.23,2.6-3.97,5.71-5.17,9.25-1.23,3.61-1.85,7.61-1.85,11.9,0,4.87.63,9.19,1.86,12.84,1.2,3.58,2.89,6.63,5.01,9.07,2.07,2.39,4.52,4.14,7.47,5.33,2.62,1.06,5.54,1.59,8.72,1.59m170.08-21.7c2.12-.1,4.34-.2,6.67-.3,2.53-.11,4.95-.21,7.24-.32-.57-2.01-1.16-4.1-1.78-6.28-1.17-4.09-2.3-8.14-3.37-12.03-.6-2.19-1.19-4.34-1.76-6.45-.63,2.39-1.27,4.81-1.93,7.28-1.09,4.08-2.22,8.18-3.37,12.19h0c-.58,2.03-1.15,4-1.7,5.9m9.24-81.16c-.8,0-1.61,0-2.41.03-2.35.06-4.64.17-6.83.33-2.51.19-4.82.48-6.89.88-4.87.82-9.41,3.06-13.14,6.48-1.63,1.49-3.06,3.12-4.27,4.88-1.29-1.92-2.84-3.66-4.64-5.17l-.02-.02-.02-.02c-2.91-2.44-6.31-4.24-10.4-5.48-3.43-1.04-7.21-1.53-11.59-1.53-10,0-17.76,2.94-23.07,8.73-4.63,5.05-7.21,11.41-7.47,18.39-.13,3.11-.22,6.59-.29,10.37l-.03-1.96c-.05-3.1-.13-5.93-.23-8.44v-.14s-.01-.14-.01-.14v-.15s-.02-.15-.02-.15v-.15c-.23-2.84-.81-5.62-1.72-8.25-1.47-4.21-3.88-7.81-7.17-10.75-2.79-2.48-6.16-4.39-10.03-5.68-3.44-1.14-7.22-1.69-11.59-1.69s-8.17.5-11.57,1.53c-3.43,1.05-6.37,2.47-8.94,4.33-2.19-.96-4.47-1.8-6.82-2.5-4.76-1.41-9.77-2.35-14.93-2.79-2.63-.22-5.25-.34-7.81-.34-2.17,0-4.32.08-6.4.24-11.02.72-20.97,3.04-29.59,6.88-8.99,4.01-16.65,9.45-22.78,16.18-6.13,6.73-10.75,14.6-13.72,23.4-2.79,8.26-4.21,17.2-4.21,26.56,0,11.08,1.68,21.19,4.98,30.04,3.51,9.42,8.68,17.44,15.35,23.83,6.6,6.33,14.52,11.1,23.56,14.18,7.64,2.6,15.98,3.92,24.81,3.92,1.08,0,2.18-.02,3.26-.06,12.57-.37,23.88-2.99,33.62-7.8.35-.17.69-.34,1.03-.52.03.03.06.06.09.09,3.56,3.77,10.05,8.26,20.75,8.26.68,0,1.36-.02,2.05-.05,11.46-.61,17.92-5.73,21.32-9.93,4.11-5.08,6.3-11.49,6.52-19.09v-.05s0-.05,0-.05c.08-3.82.15-7.94.2-12.28.05,0,.1,0,.15,0,.12,4,.18,7.98.18,11.88v.19s0,.11,0,.11v.11s0,.11,0,.11c.21,7.57,2.41,13.97,6.52,19,3.41,4.23,9.78,9.36,20.82,9.99h.03s.03,0,.03,0c.69.04,1.38.06,2.05.06,5.18,0,9.4-1.09,12.78-2.62,1.79.72,3.78,1.33,6,1.79l.13.03.13.02c2.21.42,4.41.63,6.54.63,4.72,0,9.15-1.01,13.16-3.02,6.38-3.2,11.19-8.77,14.31-16.58l.06-.15.05-.15c.09-.25.33-.84.82-1.95.09-.21.18-.42.28-.64,1.73-.08,3.45-.16,5.16-.24h.08s.08,0,.08,0h.06s.04,0,.04,0h.04c1.24-.08,2.49-.17,3.74-.25.07.17.13.34.19.52.55,1.46,1,2.69,1.39,3.75l.03.09.04.09c1.36,3.57,2.84,6.45,4.52,8.8,2.8,3.92,6.57,6.92,10.89,8.65,2.95,1.18,6.09,1.77,9.32,1.77,1.05,0,2.13-.06,3.2-.19,2.16-.26,4.49-.74,7.13-1.47,3.32-.91,6.32-2.26,8.94-3.99,3.58,2.35,8.38,4.21,14.76,4.58h.05s.05,0,.05,0c.67.03,1.35.05,2.01.05,10,0,16.49-3.95,20.17-7.27,5.19-4.69,8.53-11.04,9.68-18.37l.03-.18.02-.18.03-.19.02-.18.02-.18c.99-9.21,1.79-20.55,2.37-33.71.33-7.54.6-15.62.81-24.13.66.04,1.32.06,2,.06h1.03c-.04,5.53-.06,11.24-.06,17.38,0,6.76.02,12.99.07,19.05.05,6.39.17,12.48.37,18.09v.17s.02.17.02.17c.41,6.95,2.41,12.92,5.96,17.73,3.32,4.51,9.7,10.02,21.21,10.69h.05s.05,0,.05,0c.67.03,1.35.05,2.01.05,10,0,16.49-3.96,20.17-7.27,4.52-4.08,7.64-9.43,9.13-15.59,1.56,1.93,3.23,3.76,4.99,5.49,6.58,6.45,14.38,11.34,23.2,14.55,7.86,2.86,16.27,4.3,25,4.3.71,0,1.41,0,2.12-.03,9.26-.25,18.19-2.08,26.53-5.43,5.93-2.38,11.41-5.48,16.37-9.24.67,1.29,1.43,2.51,2.28,3.69,3.35,4.63,9.76,10.28,21.21,10.96h.05s.05,0,.05,0c.67.04,1.34.05,1.99.05,11.14,0,17.7-5.01,21.24-9.21,3.22-3.83,5.42-8.33,6.57-13.45,2.28,3.58,4.32,6.6,6.09,9.02l.07.09.07.09.06.08.05.06.05.06c2.91,3.76,5.87,6.62,9.05,8.75,4.49,2.99,9.89,4.49,16.09,4.49.43,0,.86,0,1.3-.02,7.78-.22,14.45-2.49,19.82-6.75,6.17-4.92,9.85-11.74,10.65-19.76v-.11s.02-.11.02-.11v-.1s.02-.08.02-.08v-.08c.4-5.29.79-11.77,1.17-19.25.39-7.58.73-15.55,1.01-23.71.29-8.3.51-16.64.65-24.8.14-8.2.22-15.82.22-22.66,0-2.46-.26-4.94-.78-7.36v-.03s-.01-.03-.01-.03c-1.05-4.81-3.5-9.14-7.08-12.53l-.02-.02-.02-.02c-2.9-2.73-6.54-4.79-10.82-6.13-3.42-1.07-7.23-1.58-11.67-1.58-10.62,0-18.59,3.33-23.7,9.91-2.79,3.59-4.68,7.78-5.57,12.31-1.78-2.98-3.46-5.75-5.03-8.29-3.94-6.44-9.66-10.78-16.55-12.55-3.65-.93-7.91-1.38-13.06-1.38-7.72,0-13.78,1.73-18.54,5.3-2.7,2.03-4.91,4.57-6.55,7.5-4.79-3.63-10.11-6.57-15.89-8.77-7.46-2.84-15.6-4.28-24.19-4.28-1.59,0-3.21.05-4.83.15-10.15.61-19.57,2.84-28.01,6.62-.09.04-.18.08-.27.12-4.73-4.51-10.95-6.98-17.62-6.98-11.17,0-22.58.1-33.92.29-8.86.15-18.26.49-27.97,1.02-1.32-.2-2.65-.3-3.98-.3-11.17,0-22.58.1-33.92.29-11.53.2-23.59.69-35.86,1.47h-.18s-.18.03-.18.03c-2.99.26-5.84.99-8.51,2.15-3.18-2.28-6.9-3.81-11.03-4.48l-.1-.02h-.1s-.11-.03-.11-.03l-.11-.02h-.11c-1.94-.27-4.18-.46-6.64-.59-1.59-.08-3.23-.12-4.87-.12h0Zm215.28,59.34s.08,0,.11,0c1.19,0,2.33.2,3.37.6.84.32,1.47.75,2.15,1.47.82.86,1.57,2.19,2.18,3.82.49,1.33,1.09,3.72,1.09,7.49,0,2.75-.37,5.21-1.06,7.11-.61,1.67-1.38,3.02-2.29,4.01-.85.93-1.87,1.65-3.1,2.2h-.01s-.05.03-.05.03l-.06.03-.06.03c-1.13.52-2.45.8-3.92.84-.11,0-.18,0-.24,0-.9,0-1.74-.17-2.54-.51-.78-.33-1.47-.84-2.11-1.54-.91-1.01-1.74-2.49-2.41-4.26-.7-1.85-1.07-4.3-1.07-7.08s.36-5.03,1.06-7.02c.64-1.81,1.45-3.3,2.39-4.41.69-.81,1.5-1.42,2.48-1.88,1.14-.53,2.55-.85,4.09-.94h0Zm-391.49.29c.13,0,.26,0,.39,0,1.97,0,2.92.24,3.17.31,1.63.92,3.09,2.01,4.33,3.26,4.19,4.19,9.12,6.84,14.45,7.81-1.31.39-2.59.89-3.85,1.49-4.58,2.19-8.42,5.82-11.09,10.5-.18.31-.51.79-1.1,1.37-.61.6-1.36,1.15-2.21,1.64-.95.54-2,.99-3.14,1.33-1.02.3-2.12.47-3.28.51h-.08s-.08,0-.08,0c-.21,0-.42.01-.63.01-1.23,0-2.27-.17-3.08-.5-.75-.31-1.25-.66-1.77-1.25-.83-.95-1.56-2.35-2.13-4.04-.49-1.46-1.07-4.03-1.07-8.06,0-2.64.35-5.02,1.05-7.06.59-1.73,1.38-3.18,2.36-4.33.73-.85,1.63-1.51,2.77-2.02,1.34-.6,3.02-.93,4.98-.98h0Z"/>
      </g>
      <path class="cls-3" d="m207.07,108.5c5.85-2.03,11.94-3.31,18.11-3.8l5.52-.44c.09,0,.15-.08.16-.16.25-7.55.45-15.21.58-22.82.14-8.26.21-15.91.21-22.75,0-1.53-.23-3.05-.67-4.52-.56-1.83-1.6-3.4-3.11-4.67-1.33-1.12-3.01-1.98-5.12-2.62-1.97-.59-4.33-.88-7.22-.88-5.7,0-9.62,1.26-12.01,3.87-2.22,2.42-3.42,5.39-3.54,8.82-.19,4.75-.31,10.34-.36,16.61-.04,4.72-.06,9.52-.07,14.32,0,.09-.07.17-.16.17-4.82.16-9.76.33-14.82.51-4.89.18-9.75.4-14.5.67-.1,0-.18-.07-.18-.17v-5.06c0-3.22-.02-6.5-.07-9.76l-.14-9.21c-.05-2.96-.12-5.68-.22-8.08v-.15c-.13-1.57-.44-3.08-.93-4.5-.61-1.74-1.6-3.24-2.98-4.46-1.25-1.11-2.87-2.01-4.82-2.66-1.86-.62-4.09-.92-6.83-.92-2.89,0-5.25.29-7.23.89-2.12.64-3.79,1.5-5.12,2.62-1.5,1.26-2.55,2.84-3.1,4.67-.32,1.03-.52,2.09-.61,3.17-.01.14-.18.21-.28.1-1.35-1.44-2.91-2.74-4.67-3.88-3.15-2.05-6.72-3.68-10.6-4.83-3.76-1.12-7.77-1.86-11.93-2.22-4.1-.35-8.11-.37-11.87-.08-9.28.6-17.54,2.49-24.55,5.62-7.08,3.16-13.07,7.39-17.8,12.59-4.73,5.19-8.3,11.28-10.6,18.1-2.27,6.71-3.42,14.03-3.42,21.75,0,2.27.08,4.47.24,6.62,0,.03.01.06.03.09,2.65,4.03,7.3,5.41,13.5,5.41,8.32,0,10.96-4.48,17.47-9.48.04-.03.07-.09.07-.14-.03-.77-.06-1.56-.06-2.36,0-4.29.62-8.3,1.85-11.9,1.21-3.54,2.95-6.65,5.17-9.25,2.17-2.53,4.86-4.53,8.01-5.94,3.2-1.44,6.86-2.21,10.85-2.29,4.59-.08,8.26.62,10.91,2.07,2.94,1.62,5.59,3.6,7.88,5.89,4.15,4.15,8.39,4.18,11.21,3.48,3.2-.8,6.13-2.47,8.74-4.96,0,.05,0,.1,0,.15.14,8.32.33,16.6.56,24.6,0,.12.13.2.25.15l1.43-.71c8.61-4.29,18.71-4.16,27.28.2,7.37,3.75,16.87,7.94,25.35,7.5"/>
      <path class="cls-3" d="m254.38,112.93c5.79,0,9.35-.75,12.24-1.78.52-1.77,1.04-3.59,1.57-5.46h0c1.15-4.01,2.28-8.11,3.37-12.19.66-2.47,1.3-4.9,1.93-7.28.57,2.11,1.16,4.26,1.76,6.45,1.06,3.89,2.2,7.94,3.37,12.03.16.56.31,1.11.47,1.66,0,0,0,0,0,0,3.58-.84,8.31-1.42,15.29-1.42s11.76.76,15.45,1.86c0,0,0,0,0,0-.77-2.82-1.55-5.64-2.33-8.47-2.22-7.97-4.48-15.86-6.72-23.46-.11-.38-.22-.74-.33-1.12.04.04.06.08.1.12,2.29,2.37,5.37,3.57,9.15,3.57h9.84c2.07,0,4.22-.02,6.43-.05-.12,4.29-.19,8.81-.23,13.5-.05,6.01-.07,12.2-.07,18.93,0,1.25,0,2.46,0,3.67,0,0,0,0,0,0,3.54,1.06,8.04,1.79,14.66,1.79,7.76,0,13.02-2.05,17.63-4.88.42-10.63.73-22.23.91-34.57,0,0,0,0,0,0,2.72-.15,5.35-.33,7.85-.53.89-.07,1.78-.15,2.66-.22,0,0,0,0,0,0,1.78.91,3.85,1.37,6.19,1.37h9.84c2.07,0,4.22-.02,6.43-.05-.12,4.29-.19,8.81-.23,13.5-.01,1.47-.02,2.96-.03,4.46,0,0,0,0,0,0,2.39-.26,4.97-.41,7.8-.41,18.37,0,20.21,5.78,24.61,11.28.34-9.47.59-19.65.75-30.4,0,0,0,0,0,0,2.72-.15,5.35-.33,7.85-.53,3.41-.27,6.83-.59,10.11-.94,0,0,0,0,0,0-1.56,2.69-2.92,5.52-4.05,8.52-2.58,6.84-3.9,14.4-3.9,22.45,0,2.85.16,5.6.45,8.27,4.73,1.44,11.39,2.35,21.18,2.35,4.25,0,7.89-.14,11.04-.4-.93-3.13-1.41-6.65-1.41-10.51,0-4.37.64-8.41,1.91-12.01,1.26-3.56,2.98-6.64,5.12-9.15,2.08-2.45,4.63-4.38,7.56-5.75,2.98-1.39,6.33-2.17,9.89-2.34.21,0,.43,0,.64,0,3.04,0,5.97.54,8.74,1.6,2.93,1.13,5.44,2.81,7.66,5.15,2.23,2.35,4.03,5.35,5.36,8.91.86,2.32,1.45,4.9,1.76,7.72,3.24-.24,6.94-.37,11.23-.37,34.34,0,39.57,8.73,49.23,14.07,0,0,0,0,0,0,.09-2.32.18-4.66.26-6.99,0-.22.01-.45.02-.67.69,1.23,1.4,2.49,2.12,3.78,1.21,2.15,2.44,4.3,3.67,6.44,0,0,0,0,0,0,3.19.94,7.06,1.51,12.2,1.51,26.71,0,32.22-17.8,44.64-20.62,0,0,0,0,0,0,.13-4.73.24-9.45.32-14.12.14-8.12.21-15.65.21-22.4,0-1.41-.15-2.82-.45-4.21-.41-1.89-1.33-3.51-2.74-4.84-1.26-1.19-2.91-2.09-5.04-2.76-1.93-.6-4.28-.89-7.18-.89-5.83,0-9.71,1.34-11.86,4.11-1.85,2.38-2.85,5.27-2.98,8.51-.19,3.46-.31,7.84-.36,13.02-.05,4.99-.07,10.47-.07,16.3v18.73c-.55-.91-1.11-1.84-1.69-2.8-3.33-5.7-6.77-11.59-10.33-17.67-3.57-6.08-7.06-12.05-10.48-17.9-3.41-5.82-6.54-11.06-9.31-15.54-1.89-3.1-4.41-5.07-7.49-5.86-2.4-.61-5.45-.91-9.33-.91-4.42,0-7.44.73-9.53,2.3-1.56,1.17-3.51,3.45-3.87,7.63v.22c-.2,5.8-.39,12.6-.58,20.21-.11,4.5-.21,9.15-.29,13.89,0,0,0,0,0,0-.65-3.64-1.56-7.13-2.74-10.43-2.65-7.39-6.49-13.77-11.42-18.95-4.96-5.22-10.98-9.19-17.88-11.82-6.87-2.62-14.54-3.68-22.78-3.18-8.34.5-16.01,2.3-22.79,5.33-5.03,2.25-9.54,5.11-13.5,8.52.02-.49.04-.99.04-1.51,0-4.25-.97-7.33-2.97-9.41-1.99-2.06-4.61-3.15-7.59-3.15-11.06,0-22.38.1-33.66.29-9.45.16-19.27.54-29.29,1.1,0,0,0,0,0,0-.92-.25-1.9-.39-2.91-.39-11.06,0-22.38.1-33.66.29-11.29.19-23.09.67-35.16,1.44-3.2.28-6,1.7-8.3,4.2-2.2,2.4-3.31,5.66-3.33,9.68,0,0,0,0,0,0-.84-2.73-1.66-5.31-2.44-7.73-1.9-6.21-6.04-8.12-9.18-8.62l-.11-.02c-1.53-.2-3.34-.36-5.4-.46-2.04-.1-4.13-.12-6.21-.08-2.08.05-4.12.15-6.05.29-2.01.15-3.82.38-5.38.69-2.09.33-4,1.26-5.65,2.77-1.55,1.42-2.69,3.06-3.39,4.87l-.05.15c-1.89,5.58-4.08,12.32-6.52,20.05-2.42,7.68-4.87,15.82-7.3,24.2-.8,2.77-1.6,5.54-2.39,8.29,0,0,0,0,0,0,3.95,2.7,5.89,6.15,17.45,6.15Z"/>
      <path class="cls-2" d="m275.73,45.44c1.39,0,2.77.03,4.14.1,2.06.1,3.87.25,5.4.46l.11.02c3.14.51,7.28,2.42,9.18,8.62.78,2.42,1.6,5.01,2.44,7.73.02-4.02,1.13-7.29,3.33-9.69,2.3-2.51,5.1-3.92,8.3-4.2,12.07-.77,23.87-1.25,35.16-1.44,11.28-.19,22.6-.29,33.66-.29,1.02,0,1.99.14,2.91.39,10.02-.56,19.84-.94,29.29-1.1,11.28-.19,22.6-.29,33.66-.29,2.98,0,5.6,1.09,7.59,3.15,2,2.08,2.97,5.16,2.97,9.41,0,.52-.02,1.02-.04,1.51,3.96-3.41,8.48-6.27,13.5-8.52,6.78-3.04,14.45-4.83,22.79-5.33,1.32-.08,2.63-.12,3.92-.12,6.76,0,13.09,1.1,18.86,3.3,6.9,2.63,12.92,6.61,17.88,11.82,4.93,5.19,8.77,11.56,11.42,18.95,1.18,3.3,2.09,6.8,2.74,10.45.08-4.74.18-9.4.29-13.91.19-7.62.38-14.42.57-20.21v-.22c.38-4.19,2.32-6.46,3.88-7.63,2.09-1.57,5.12-2.3,9.53-2.3,3.88,0,6.93.3,9.33.91,3.08.79,5.6,2.76,7.49,5.86,2.77,4.48,5.9,9.72,9.31,15.54,3.42,5.85,6.92,11.82,10.48,17.9,3.56,6.08,7.01,11.97,10.33,17.67.57.96,1.14,1.89,1.69,2.8v-18.73c0-5.83.02-11.31.07-16.3.05-5.19.17-9.57.36-13.02.12-3.25,1.13-6.13,2.98-8.51,2.15-2.77,6.03-4.11,11.86-4.11,2.9,0,5.25.29,7.18.89,2.13.67,3.78,1.57,5.04,2.76,1.41,1.33,2.33,2.96,2.74,4.84.3,1.39.45,2.8.45,4.21,0,6.74-.07,14.28-.21,22.4-.14,8.08-.36,16.34-.64,24.53-.28,8.08-.62,15.97-1,23.46-.38,7.4-.77,13.77-1.15,18.92v.1c-.4,3.95-2.1,7.15-5.06,9.51-2.78,2.21-6.46,3.39-10.95,3.51-.29,0-.57.01-.84.01-3.21,0-5.77-.64-7.75-1.97-1.81-1.21-3.61-2.99-5.51-5.45l-.06-.08c-2.15-2.93-4.8-6.95-7.88-11.97-2.98-4.83-6.25-10.25-9.73-16.1-3.44-5.78-6.89-11.74-10.25-17.7-.72-1.28-1.43-2.54-2.12-3.78,0,.22-.02.44-.02.67-.19,5.54-.41,11.07-.64,16.44-.24,5.46-.5,10.59-.79,15.26-.29,4.75-.63,8.7-1.02,11.75-.48,3.62-1.75,6.66-3.76,9.05-2.17,2.58-5.46,3.88-9.77,3.88-.39,0-.79-.01-1.2-.03-4.5-.27-7.84-1.88-9.95-4.78-1.83-2.52-2.87-5.72-3.11-9.52-.29-6.95-.44-14.52-.44-22.57,0-2.07.01-4.16.02-6.24-.73,3.3-1.72,6.46-2.99,9.45h0c-2.96,6.93-7.03,12.94-12.09,17.85-5.06,4.91-11.04,8.76-17.77,11.47-6.69,2.68-13.87,4.15-21.35,4.35-.57.02-1.15.02-1.72.02-6.98,0-13.66-1.14-19.87-3.4-6.79-2.47-12.79-6.23-17.84-11.17-5.03-4.92-9.05-11.01-11.96-18.1-2.9-7.06-4.36-15.23-4.36-24.27,0-8.06,1.31-15.61,3.9-22.45,1.13-2.99,2.49-5.83,4.05-8.52-3.28.35-6.69.67-10.11.94-2.5.2-5.13.38-7.85.53-.21,14.09-.57,27.21-1.09,39.03h0c-.57,12.83-1.34,23.86-2.3,32.77l-.03.19c-.62,3.96-2.27,7.17-4.91,9.55-2.51,2.27-5.92,3.41-10.12,3.41-.41,0-.83-.01-1.25-.03-4.58-.26-7.94-1.82-10-4.62-1.79-2.43-2.82-5.7-3.06-9.7-.2-5.5-.32-11.42-.36-17.68-.05-6.01-.07-12.2-.07-18.93s.02-12.92.07-18.93c.04-4.69.11-9.21.23-13.5-2.21.04-4.36.05-6.43.05h-9.84c-2.34,0-4.4-.46-6.19-1.37-.89.08-1.77.15-2.66.22-2.5.2-5.13.38-7.85.53-.2,14.09-.57,27.21-1.09,39.03h0c-.57,12.83-1.34,23.86-2.3,32.77l-.03.19c-.62,3.96-2.27,7.17-4.91,9.55-2.52,2.27-5.92,3.41-10.12,3.41-.41,0-.83-.01-1.25-.03-4.58-.26-7.94-1.82-10.01-4.62-1.79-2.43-2.82-5.7-3.06-9.7-.2-5.5-.32-11.42-.36-17.68-.05-6.01-.07-12.2-.07-18.93s.02-12.92.07-18.93c.04-4.69.11-9.21.23-13.5-2.21.04-4.36.05-6.43.05h-9.84c-3.78,0-6.86-1.2-9.15-3.57-.04-.04-.07-.08-.1-.12.11.37.22.74.33,1.12,2.24,7.6,4.5,15.49,6.72,23.46,2.25,8.08,4.43,16.14,6.5,23.94,2.15,8.13,3.97,15.14,5.57,21.44.97,3.76.87,7.17-.31,10.1-1.34,3.36-4.25,5.67-8.65,6.87-1.91.53-3.53.87-4.93,1.04-.48.06-.96.09-1.42.09-1.32,0-2.58-.23-3.75-.7-1.67-.67-3.11-1.83-4.27-3.46-.92-1.28-1.8-3.05-2.69-5.39-.4-1.09-.87-2.36-1.43-3.87-.57-1.51-1.16-3.08-1.77-4.69l-2.42-6.33c-4.98.38-9.93.74-14.76,1.05h-.06c-4.93.25-9.92.45-14.9.63-.15.42-.3.84-.47,1.26-.52,1.31-1,2.62-1.46,3.88-.51,1.42-1.05,2.77-1.6,4.04-.49,1.11-.87,2.02-1.13,2.72-1.73,4.33-4.11,7.24-7.09,8.73-1.92.96-4.08,1.44-6.46,1.44-1.2,0-2.46-.12-3.77-.37-4.5-.93-7.55-2.88-9.13-5.82-.1-.18-.17-.37-.26-.55-.67,1.25-1.51,2.38-2.52,3.38-2.4,2.33-5.72,3.52-9.89,3.52-.41,0-.82-.01-1.25-.03-4.5-.26-7.87-1.76-10.03-4.47-1.99-2.41-3.06-5.76-3.17-9.97v-.11c0-5.04-.1-10.22-.28-15.41-.14-3.92-.21-7.99-.19-12.16-4.78.27-9.69.5-14.64.68-5.13.19-10.15.36-15.04.52-.07,4.29-.12,8.39-.15,12.28-.05,5.04-.12,9.8-.21,14.17-.12,4.24-1.19,7.61-3.17,10.06-2.17,2.67-5.68,4.15-10.46,4.4-.43.02-.85.03-1.26.03-4.3,0-7.61-1.2-9.84-3.56-2.23-2.37-3.56-5.56-3.93-9.5-.12-1.26-.24-2.6-.36-4.03-3.6,4.25-8.41,7.87-14.37,10.81-7.81,3.85-17.05,5.96-27.47,6.26-.93.03-1.85.05-2.77.05-7.17,0-13.89-1.04-19.97-3.12-6.95-2.37-13.02-6.01-18.03-10.81-5.03-4.82-8.96-10.96-11.68-18.25-2.68-7.17-4.03-15.51-4.03-24.79,0-7.72,1.15-15.04,3.42-21.75,2.31-6.82,5.88-12.91,10.6-18.1,4.73-5.19,10.72-9.43,17.8-12.59,7.02-3.13,15.28-5.02,24.55-5.62,1.73-.14,3.51-.2,5.33-.2,2.13,0,4.32.09,6.53.28,4.15.36,8.16,1.1,11.93,2.22,3.88,1.16,7.44,2.78,10.6,4.83,1.88,1.22,3.52,2.61,4.93,4.15.08-1.2.29-2.39.64-3.54.56-1.83,1.6-3.41,3.1-4.67,1.33-1.12,3.01-1.98,5.12-2.62,1.97-.6,4.33-.89,7.23-.89,2.74,0,4.97.3,6.83.92,1.94.65,3.56,1.54,4.82,2.66,1.37,1.22,2.37,2.72,2.98,4.46.49,1.42.8,2.93.92,4.5v.15c.1,2.4.18,5.12.23,8.08l.14,9.2c.05,3.26.07,6.55.07,9.76v5.24c4.81-.27,9.73-.5,14.68-.68,5.11-.19,10.11-.36,14.98-.52,0-4.86.03-9.71.07-14.49.05-6.27.17-11.85.36-16.61.13-3.42,1.32-6.39,3.54-8.82,2.38-2.6,6.31-3.87,12.01-3.87,2.89,0,5.25.29,7.22.88,2.12.64,3.79,1.5,5.12,2.62,1.5,1.27,2.55,2.84,3.11,4.67.45,1.48.67,3,.67,4.52,0,6.84-.07,14.49-.21,22.75-.14,8.26-.36,16.59-.64,24.75-.28,8.1-.62,15.96-1,23.39-.06,1.17-.12,2.31-.18,3.43.83-3.03,1.71-6.22,2.65-9.56,2.26-8.07,4.64-16.41,7.07-24.78,2.43-8.38,4.88-16.52,7.3-24.2,2.43-7.73,4.63-14.48,6.52-20.05l.05-.15c.7-1.81,1.84-3.45,3.39-4.87,1.66-1.51,3.56-2.45,5.65-2.77,1.56-.31,3.37-.54,5.38-.69,1.93-.14,3.97-.24,6.05-.29.69-.02,1.38-.02,2.07-.02m213.39,86.98c.19,0,.39,0,.59,0,3.53-.08,6.84-.82,9.84-2.2l.04-.02c3.09-1.38,5.79-3.32,8.03-5.76,2.25-2.45,4.04-5.48,5.32-9.01,1.31-3.58,1.97-7.7,1.97-12.25,0-4.82-.68-9.1-2.03-12.73-1.33-3.56-3.13-6.56-5.36-8.91-2.22-2.34-4.73-4.02-7.66-5.15-2.77-1.06-5.71-1.6-8.74-1.6-.21,0-.42,0-.64,0-3.56.16-6.92.95-9.89,2.34-2.93,1.37-5.48,3.3-7.56,5.75-2.14,2.51-3.86,5.59-5.12,9.15-1.27,3.59-1.91,7.63-1.91,12.01,0,4.63.68,8.79,2.03,12.36,1.34,3.56,3.12,6.59,5.29,9.01,2.11,2.35,4.61,4.15,7.43,5.34,2.65,1.12,5.47,1.69,8.38,1.69m-392.71.88c.43,0,.86,0,1.3-.03,2.45-.08,4.8-.46,7.03-1.12,2.26-.67,4.39-1.58,6.35-2.7,1.93-1.11,3.68-2.42,5.2-3.89,1.48-1.44,2.72-3.02,3.67-4.68,1.17-2.04,2.69-3.53,4.53-4.41,1.55-.74,3.18-1.11,4.87-1.11.15,0,.29,0,.44,0,1.61.07,3.27.41,4.94,1.03,1.49.55,2.91,1.27,4.24,2.14-.16-3.89-.29-7.89-.41-11.96-.24-8.09-.43-16.46-.57-24.87,0-.05,0-.1,0-.15-2.6,2.49-5.54,4.16-8.74,4.96-.81.2-1.74.35-2.76.35-2.5,0-5.5-.87-8.46-3.82-2.29-2.29-4.94-4.27-7.88-5.89-2.52-1.38-5.96-2.08-10.24-2.08-.22,0-.44,0-.67,0-3.99.08-7.64.85-10.85,2.29-3.15,1.41-5.85,3.41-8.01,5.94-2.23,2.6-3.97,5.71-5.17,9.25-1.23,3.61-1.85,7.61-1.85,11.9,0,4.87.63,9.19,1.86,12.84,1.2,3.58,2.89,6.63,5.01,9.07,2.07,2.39,4.52,4.14,7.47,5.33,2.62,1.06,5.54,1.59,8.72,1.59m170.08-21.7c2.12-.1,4.34-.2,6.67-.3,2.53-.11,4.95-.21,7.24-.32-.57-2.01-1.16-4.1-1.78-6.28-1.17-4.09-2.3-8.14-3.37-12.03-.6-2.19-1.19-4.34-1.76-6.45-.63,2.39-1.27,4.81-1.93,7.28-1.09,4.08-2.22,8.18-3.37,12.19h0c-.58,2.03-1.15,4-1.7,5.9m9.24-75.16c-.76,0-1.52,0-2.27.03-2.24.05-4.43.16-6.52.32-2.3.17-4.42.44-6.28.8-3.75.62-7.26,2.35-10.15,4.99-2.59,2.36-4.51,5.15-5.72,8.28l-.03.08-.03.08-.05.15-.03.09-.03.09c-1.21,3.57-2.54,7.61-3.98,12.09,0-1.68.01-3.32.01-4.91,0-2.41-.36-4.81-1.06-7.14-1.07-3.49-3.11-6.57-5.91-8.93-2.3-1.93-5.01-3.35-8.31-4.36-2.84-.86-6.06-1.27-9.84-1.27-8.36,0-14.46,2.22-18.64,6.79-3.65,3.98-5.69,9.02-5.9,14.56-.19,4.82-.32,10.51-.37,16.88-.02,1.94-.03,3.89-.04,5.85-2.09.07-4.21.15-6.34.23-1.8.07-3.59.14-5.37.22-.01-1.89-.03-3.79-.06-5.68l-.14-9.21c-.05-3.05-.13-5.83-.22-8.29v-.08s0-.08,0-.08v-.15s-.01-.09-.01-.09v-.09c-.19-2.33-.66-4.6-1.4-6.75-1.12-3.22-2.97-5.98-5.49-8.23-2.18-1.93-4.85-3.44-7.95-4.47-2.81-.93-5.97-1.38-9.69-1.38s-7,.42-9.83,1.27c-3.32,1.01-6.03,2.43-8.31,4.35-.51.43-.99.87-1.44,1.34-2.94-1.57-6.11-2.86-9.46-3.86-4.36-1.29-8.98-2.15-13.73-2.56-2.45-.21-4.91-.32-7.3-.32-2.03,0-4.04.08-5.97.23-10.32.67-19.6,2.82-27.58,6.38-8.23,3.67-15.22,8.63-20.79,14.74-5.57,6.11-9.77,13.27-12.48,21.28-2.58,7.64-3.9,15.93-3.9,24.64,0,10.36,1.55,19.76,4.6,27.94,3.19,8.56,7.86,15.83,13.88,21.6,5.96,5.72,13.14,10.04,21.35,12.84,7.01,2.39,14.7,3.6,22.87,3.6,1.02,0,2.04-.02,3.06-.06,11.71-.34,22.19-2.76,31.17-7.18,1.84-.91,3.6-1.88,5.28-2.92.82,1.35,1.77,2.6,2.86,3.75,2.75,2.91,7.82,6.38,16.39,6.38.57,0,1.16-.02,1.73-.05,9.25-.49,14.34-4.47,16.98-7.72,3.26-4.03,5-9.23,5.18-15.48v-.03s0-.03,0-.03c.09-4.41.17-9.21.22-14.28.01-1.2.02-2.42.04-3.66,2.16-.08,4.32-.15,6.49-.23,1.81-.07,3.61-.14,5.41-.22.03,1.02.06,2.03.09,3.03.18,5.07.28,10.15.28,15.08v.11s0,.11,0,.11v.07s0,.07,0,.07c.18,6.23,1.92,11.41,5.19,15.4,2.64,3.28,7.64,7.26,16.49,7.77.62.03,1.2.05,1.76.05,5.53,0,9.65-1.5,12.62-3.32,2.01,1.09,4.44,2.01,7.36,2.61l.08.02h.08c1.85.36,3.68.54,5.43.54,3.78,0,7.31-.8,10.48-2.38,5.02-2.52,8.86-7.04,11.42-13.44l.03-.09.03-.09c.14-.38.42-1.08.94-2.26.57-1.29,1.11-2.65,1.63-4.05,3.01-.12,6.03-.26,9.01-.4h.05s.05,0,.05,0h.06c2.71-.18,5.45-.37,8.21-.57l.03.08c.61,1.59,1.19,3.13,1.75,4.63.55,1.48,1.02,2.73,1.41,3.8l.02.06.02.06c1.17,3.08,2.41,5.51,3.79,7.44,2.17,3.04,4.94,5.25,8.24,6.57,2.24.89,4.62,1.34,7.09,1.34.82,0,1.65-.05,2.49-.15,1.85-.22,3.9-.65,6.26-1.3,4.84-1.32,8.2-3.52,10.55-5.93,2.87,2.95,7.57,5.88,15.08,6.31h.03s.03,0,.03,0c.57.03,1.15.04,1.71.04,6.41,0,11.99-1.98,16.15-5.73,4.15-3.75,6.84-8.88,7.77-14.84l.02-.11v-.11s.04-.19.04-.19v-.11s.03-.11.03-.11c.98-9.09,1.76-20.3,2.34-33.33.42-9.54.74-19.94.96-31.01.08,0,.16-.01.23-.02,2.36.81,4.9,1.22,7.61,1.22h7.09c-.02,1.45-.03,2.91-.05,4.38-.05,6.05-.07,12.27-.07,19s.02,12.95.07,19c.05,6.34.17,12.37.37,17.93v.1s0,.1,0,.1c.34,5.77,1.95,10.66,4.8,14.52,2.56,3.47,7.55,7.73,16.73,8.26h.03s.03,0,.03,0c.57.03,1.15.04,1.7.04,6.41,0,11.99-1.98,16.15-5.73,4.15-3.75,6.84-8.88,7.77-14.84l.02-.11v-.11s.04-.19.04-.19v-.11s.03-.11.03-.11c.45-4.18.86-8.81,1.23-13.86,3.31,7.5,7.76,14.02,13.26,19.4,5.96,5.84,13.05,10.29,21.06,13.2,7.2,2.62,14.92,3.94,22.95,3.94.65,0,1.31,0,1.96-.03,8.55-.23,16.78-1.91,24.46-5,7.83-3.14,14.78-7.64,20.68-13.36.23-.23.46-.45.69-.68.71,3.99,2.18,7.52,4.36,10.54,2.59,3.58,7.59,7.95,16.71,8.49h.03s.03,0,.03,0c.56.03,1.13.04,1.67.04,8.83,0,13.93-3.85,16.65-7.07,3.14-3.73,5.09-8.33,5.8-13.67.42-3.29.79-7.45,1.09-12.4.04-.6.07-1.2.11-1.81,2.39,3.98,4.67,7.73,6.8,11.19,3.21,5.21,6,9.44,8.29,12.57l.04.05.04.05.06.08.03.04.03.04c2.51,3.24,5,5.67,7.64,7.43,3.48,2.31,7.76,3.48,12.75,3.48.37,0,.74,0,1.13-.02,6.46-.18,11.93-2.01,16.26-5.46,4.87-3.88,7.78-9.29,8.41-15.66v-.07s.01-.07.01-.07v-.1s.01-.05.01-.05v-.05c.39-5.25.78-11.68,1.16-19.12.38-7.55.72-15.49,1.01-23.61.29-8.27.51-16.57.65-24.69.14-8.16.22-15.75.22-22.55,0-2.04-.22-4.09-.65-6.1-.8-3.66-2.65-6.93-5.35-9.49-2.3-2.16-5.08-3.72-8.53-4.8-2.82-.88-6.05-1.31-9.88-1.31-8.67,0-15.05,2.55-18.96,7.59-2.97,3.81-4.65,8.52-4.86,13.6-.2,3.59-.32,8.09-.37,13.37,0,.69-.01,1.39-.02,2.09-1.95-3.33-3.88-6.63-5.79-9.89-3.45-5.89-6.61-11.18-9.42-15.72-3.08-5.06-7.56-8.48-12.92-9.85-3.15-.8-6.93-1.19-11.57-1.19-6.46,0-11.21,1.3-14.93,4.1-4.07,3.05-6.66,7.71-7.34,13.19-5.83-6.02-12.84-10.61-20.84-13.66-6.78-2.58-14.2-3.89-22.06-3.89-1.47,0-2.97.05-4.47.14-9.43.57-18.15,2.62-25.92,6.1-1.45.65-2.87,1.35-4.26,2.09-.6-.9-1.27-1.74-2.02-2.52-3.68-3.81-8.67-5.91-14.07-5.91-11.14,0-22.52.1-33.82.29-8.99.15-18.54.5-28.41,1.04-1.2-.22-2.42-.33-3.64-.33-11.14,0-22.52.1-33.81.29-11.43.19-23.41.68-35.58,1.46h-.11s-.11.02-.11.02c-3.57.31-6.91,1.48-9.86,3.42-2.94-3.07-6.75-5.09-11.17-5.8h-.06s-.06-.02-.06-.02l-.11-.02h-.07s-.07-.02-.07-.02c-1.78-.24-3.85-.41-6.15-.53-1.49-.07-3.03-.11-4.58-.11h0Zm215.08,47.34c.11,0,.21,0,.31,0,1.93,0,3.79.34,5.52,1,1.68.64,3.06,1.58,4.36,2.94,1.39,1.47,2.55,3.44,3.45,5.86.97,2.62,1.47,5.84,1.47,9.59,0,3.49-.48,6.58-1.42,9.17-.88,2.41-2.06,4.44-3.5,6.01-1.4,1.53-3.1,2.74-5.07,3.62l-.04.02-.08.04c-1.88.86-4,1.33-6.29,1.38-.15,0-.26,0-.38,0-1.7,0-3.34-.33-4.88-.98-1.59-.67-3.01-1.7-4.24-3.06-1.42-1.58-2.62-3.66-3.57-6.16-.96-2.55-1.45-5.64-1.45-9.19,0-3.35.47-6.38,1.4-9.01.89-2.51,2.06-4.64,3.48-6.3,1.24-1.46,2.76-2.61,4.51-3.43,1.88-.88,4.04-1.38,6.42-1.5h0ZM96.41,124.29c-2.01,0-3.81-.31-5.34-.93-1.63-.66-2.91-1.58-4.05-2.89-1.35-1.56-2.45-3.59-3.28-6.05-.92-2.73-1.39-6.08-1.39-9.97,0-3.3.46-6.33,1.37-9,.84-2.45,2.01-4.57,3.49-6.29,1.3-1.51,2.93-2.72,4.87-3.59,2.09-.94,4.57-1.44,7.35-1.5.13,0,.31,0,.48,0,3.75,0,5.37.67,5.9.96,2.19,1.21,4.16,2.68,5.85,4.37,5.34,5.34,11.01,6.46,14.82,6.46.92,0,1.85-.07,2.78-.19.08,3.6.18,7.18.28,10.7-.07,0-.13,0-.2,0-3.04,0-5.98.67-8.74,1.99-3.47,1.66-6.4,4.45-8.47,8.06-.53.93-1.25,1.84-2.13,2.7-.97.95-2.12,1.8-3.4,2.54-1.35.78-2.84,1.41-4.42,1.88-1.5.45-3.11.7-4.78.76h-.05s-.05,0-.05,0c-.3.01-.6.02-.9.02h0Zm217.09-37.86h3.28c-.02,1.44-.03,2.9-.05,4.37-.02,2.3-.03,4.62-.04,6.99-.17-.63-.35-1.26-.52-1.89-.88-3.17-1.77-6.34-2.67-9.47h0Z"/>
    </g>
  </g>
</svg>